<?xml version="1.0" encoding="utf-8"?>
<svg xmlns="http://www.w3.org/2000/svg" xmlns:svg="http://www.w3.org/2000/svg" version="1.1" viewBox="0 0 1400 340">
	<title>The titlepage for the Standard Ebooks edition of The Dark Other, by Stanley G. Weinbaum</title>
	<g aria-label="THE DARK OTHER">
		<path d="m 246.73903,68.245613 h 18.33918 V 130 h 17.59064 V 68.245613 h 18.33918 V 52.807016 h -54.269 z"/>
		<path d="m 329.93347,99.029239 h 24.88889 V 130 h 17.59065 V 52.807016 H 354.82236 V 83.590642 H 329.93347 V 52.807016 H 312.34283 V 130 h 17.59064 z"/>
		<path d="M 432.77851,52.807016 H 388.61476 V 130 h 44.16375 v -15.4386 h -26.5731 V 99.029239 H 431.6557 V 83.590642 H 406.20541 V 68.245613 h 26.5731 z"/>
		<path d="M 478.47588,52.807016 V 130 h 22.36257 c 21.23977,0 38.92398,-16.09357 38.92398,-38.643276 0,-22.45614 -17.77778,-38.549708 -38.92398,-38.549708 z M 496.06652,114.2807 V 68.526315 h 2.71345 c 13.09942,0 21.98831,10.011696 21.98831,22.923977 -0.0936,12.912278 -8.98246,22.830408 -21.98831,22.830408 z"/>
		<path d="m 591.75949,52.807016 h -16.2807 L 544.32089,130 h 18.90059 l 5.7076,-15.4386 H 598.3092 L 604.0168,130 h 18.90059 z m 0.5614,46.31579 h -17.4035 l 8.60818,-22.45614 h 0.18714 z"/>
		<path d="M 630.83698,52.807016 V 130 h 17.59064 V 99.497075 L 672.00657,130 h 22.36257 l -26.5731,-31.906433 c 9.45029,-2.994152 15.81287,-10.760234 15.81287,-22.362574 0,-15.157895 -10.8538,-22.923977 -25.16959,-22.923977 z m 17.59064,34.245615 V 66.842104 h 2.05848 c 6.64328,0 14.59649,0.467836 14.59649,10.105263 0,9.637428 -7.95321,10.105264 -14.59649,10.105264 z"/>
		<path d="M 773.17471,130 737.24488,89.391812 768.30921,52.807016 H 746.97588 L 720.49635,84.33918 V 52.807016 H 702.9057 V 130 h 17.59065 V 97.251461 L 748.94079,130 Z"/>
		<path d="m 808.67617,91.356724 c 0,22.549706 16.09356,40.046786 38.92397,40.046786 22.17544,0 38.83041,-17.49708 38.83041,-40.046786 0,-22.549708 -17.4035,-39.953217 -38.83041,-39.953217 -21.23976,0 -38.92397,17.403509 -38.92397,39.953217 z m 18.99415,0 c 0,-11.508772 6.36257,-23.017544 19.92982,-23.017544 13.66082,0 19.83626,11.508772 19.83626,23.017544 0,11.508776 -5.80117,23.017546 -19.83626,23.017546 -14.40935,0 -19.92982,-11.50877 -19.92982,-23.017546 z"/>
		<path d="m 891.40278,68.245613 h 18.33919 V 130 h 17.59064 V 68.245613 h 18.33918 V 52.807016 h -54.26901 z"/>
		<path d="M 974.59721,99.029239 H 999.4861 V 130 h 17.5906 V 52.807016 H 999.4861 V 83.590642 H 974.59721 V 52.807016 H 957.00656 V 130 h 17.59065 z"/>
		<path d="m 1077.4423,52.807016 h -44.1638 V 130 h 44.1638 v -15.4386 h -26.5731 V 99.029239 h 25.4503 V 83.590642 h -25.4503 V 68.245613 h 26.5731 z"/>
		<path d="M 1092.5548,52.807016 V 130 h 17.5907 V 99.497075 L 1133.7244,130 h 22.3626 l -26.5731,-31.906433 c 9.4503,-2.994152 15.8129,-10.760234 15.8129,-22.362574 0,-15.157895 -10.8538,-22.923977 -25.1696,-22.923977 z m 17.5907,34.245615 V 66.842104 h 2.0585 c 6.6432,0 14.5965,0.467836 14.5965,10.105263 0,9.637428 -7.9533,10.105264 -14.5965,10.105264 z"/>
	</g>
	<g aria-label="STANLEY G. WEINBAUM">
		<path d="m 250.58224,231.05263 c -9.33333,0 -18.87719,6.8772 -18.87719,17.68421 0,6.03509 4.07017,11.4386 11.01754,14.8772 6.87719,3.43859 13.05263,5.33333 13.05263,9.54385 0,5.40351 -5.47368,5.68422 -8.35087,5.68422 -6.45614,0 -14.17544,-6.52632 -14.17544,-6.52632 l -6.59649,11.08772 c 0,0 8.21052,7.64912 21.75438,7.64912 11.29825,0 21.82456,-4.8421 21.82456,-18.66666 0,-7.57895 -7.08772,-13.05264 -13.54386,-15.78948 -6.59649,-2.80702 -12.07017,-5.12281 -12.07017,-8.35088 0,-3.15789 2.38596,-5.19298 6.87719,-5.19298 5.96491,0 11.7193,4 11.7193,4 l 5.33333,-10.52631 c 0,0 -7.43859,-5.47369 -17.96491,-5.47369 z"/>
		<path d="m 274.32237,243.68421 h 13.75439 V 290 h 13.19298 v -46.31579 h 13.75439 v -11.57895 h -40.70176 z"/>
		<path d="M 350.75219,232.10526 H 338.54167 L 315.17325,290 h 14.17543 l 4.28071,-11.57895 h 22.03508 L 359.94518,290 h 14.17543 z m 0.42106,34.73685 H 338.12061 L 344.57675,250 h 0.14036 z"/>
		<path d="m 394.50329,254.07018 h 0.14035 L 417.66119,290 h 13.19298 v -57.89474 h -13.19298 v 35.92983 h -0.14036 L 394.50329,232.10526 H 381.31031 V 290 h 13.19298 z"/>
		<path d="M 457.48027,232.10526 H 444.28728 V 290 h 33.12281 v -11.57895 h -19.92982 z"/>
		<path d="m 522.02082,232.10526 h -33.1228 V 290 h 33.1228 V 278.42105 H 502.091 v -11.64912 h 19.08772 V 255.19298 H 502.091 v -11.50877 h 19.92982 z"/>
		<path d="m 528.28947,232.10526 21.33334,31.92983 V 290 h 13.19298 v -25.96491 l 21.33333,-31.92983 h -15.85965 l -12.07017,18.52632 -12.07018,-18.52632 z"/>
		<path d="m 667.81689,257.57895 h -26.73685 v 10.17544 h 13.33334 c 0,7.08772 -6.24562,11.15789 -12.56141,11.15789 -8.14035,0 -14.73684,-8 -14.73684,-17.82456 0,-10.03509 6.59649,-18.10526 14.73684,-18.10526 5.12281,0 9.54386,2.03508 12.91228,7.43859 l 8.63158,-9.47368 c -5.05263,-6.10526 -12.14035,-9.89474 -22.31579,-9.89474 -16.2807,0 -28.21052,13.40351 -28.21052,30.03509 0,16.5614 12.63158,29.96491 28.21052,29.96491 11.36843,0 23.57895,-6.24561 26.73685,-20.91228 z"/>
		<path d="m 686.58005,274.98246 c -4.42105,0 -8,3.57894 -8,8.07017 0,4.42105 3.57895,8 8,8 4.49123,0 8.07018,-3.57895 8.07018,-8 0,-4.49123 -3.57895,-8.07017 -8.07018,-8.07017 z"/>
		<path d="m 770.69297,290 h 14.59649 l 16.49123,-57.89474 H 787.1842 l -9.89474,39.7193 h -0.35088 l -10.52631,-39.7193 h -9.96491 l -10.52632,39.7193 h -0.35088 l -9.89473,-39.7193 H 721.00876 L 737.49999,290 h 14.66666 l 9.26316,-32.49123 z"/>
		<path d="M 843.068,232.10526 H 809.9452 V 290 H 843.068 V 278.42105 H 823.13818 V 266.77193 H 842.2259 V 255.19298 H 823.13818 V 243.68421 H 843.068 Z"/>
		<path d="M 868.84539,232.10526 H 855.65241 V 290 h 13.19298 z"/>
		<path d="m 895.50109,254.07018 h 0.14035 L 918.65899,290 h 13.19298 v -57.89474 h -13.19298 v 35.92983 h -0.14035 L 895.50109,232.10526 H 882.30811 V 290 h 13.19298 z"/>
		<path d="M 945.2851,232.10526 V 290 h 21.96491 c 12,0 18.94737,-6.59649 18.94737,-16.14035 0,-9.33333 -5.12281,-13.33333 -12.35088,-14.59649 4.91229,-2.52632 7.22807,-7.08772 7.22807,-12.42105 0,-11.01755 -7.85964,-14.73685 -17.82456,-14.73685 z m 13.19298,22.66667 V 242.2807 h 1.05264 c 5.75438,0 8.77193,1.75439 8.77193,5.89474 0,4.8421 -3.08772,6.59649 -8.77193,6.59649 z m 0,25.05263 v -13.68421 h 4.14035 c 6.24562,0 9.68422,1.89474 9.68422,7.22807 0,4.5614 -3.4386,6.45614 -9.68422,6.45614 z"/>
		<path d="m 1025.0559,232.10526 h -12.2105 L 989.47697,290 h 14.17543 l 4.2807,-11.57895 h 22.0351 L 1034.2489,290 h 14.1754 z m 0.4211,34.73685 h -13.0527 L 1018.8805,250 h 0.1403 z"/>
		<path d="m 1100.1052,232.10526 h -13.1929 v 33.47369 c 0,9.68421 -2.9474,12.49123 -9.4035,12.49123 -6.4562,0 -9.4036,-2.80702 -9.4036,-12.49123 v -33.47369 h -13.1929 v 37.33334 c 0,14.31579 7.8596,21.61403 22.5965,21.61403 14.7368,0 22.5964,-7.29824 22.5964,-21.61403 z"/>
		<path d="m 1160.6941,290 h 13.1929 l -5.1929,-57.89474 h -14.0351 l -12.8421,33.40351 -12.8421,-33.40351 h -14.0351 L 1109.7467,290 h 13.193 l 2.7368,-34.31579 h 0.3509 l 11.8596,33.96491 h 7.8597 l 11.8596,-33.96491 h 0.3509 z"/>
	</g>
</svg>
